<?xml version="1.0" encoding="UTF-8"?>
<svg version="1.1" viewBox="0 0 1600 1600" width="100" height="100" xmlns="http://www.w3.org/2000/svg">
<path transform="translate(792,127)" d="m0 0h22l44 2 46 4 35 5 36 7 38 9 29 8 36 12 29 11 31 13 33 16 21 11 21 12 19 12 33 22 28 21 8 7 14 11 11 10 8 7 12 11 8 8 2 1v2l4 2 7 8 11 11 9 11 10 11 11 14 10 13 12 17 7 10 10 15 14 25 9 16 14 29 12 28 9 25 8 26 9 36 6 30 4 31 2 23 1 36-1 34-3 38-5 31-8 38-8 28-11 33-9 22-11 24-8 16-15 28-9 14-11 17-7 11-14 19-10 12-9 11-12 14-11 12-1 2h-2l-2 4-34 34-8 7-14 12-16 13-17 13-18 13-14 9-19 12-20 12-29 16-36 18-38 16-28 10-36 12-49 13-34 7-43 7-32 4-39 3-22 1h-58l-44-3-44-5-57-10-7 1-7 9-7 8-7 7-6 5-5 5-11 10-10 8-19 13-23 15-15 9-25 13-15 7-36 14-23 7-36 8-25 4-39 3-35 1h-35l-4-2 6-10 9-10 12-16 10-15 24-39 8-16 11-23 7-14 15-39 8-27 11-44v-6l-6-7-14-10-17-13-13-11-10-8-15-13-13-12-42-42-9-11-7-7-9-11-12-15-13-18-12-18-12-19-13-23-15-29-10-21-13-32-12-38-8-32-6-33-4-33-1-14v-69l2-26 4-31 4-22 9-39 8-26 8-23 10-24 13-29 10-19 15-26 15-24 13-18 10-14 14-17 9-11 12-14 9-10 7-8 23-23 8-7 7-7 11-9 13-11 16-12 13-10 14-10 15-10 18-11 16-10 23-13 33-17 29-13 26-10 30-11 43-13 40-10 47-9 35-5 33-3 32-2zm-6 64-40 2-33 3-50 7-31 6-36 9-34 10-36 13-32 13-22 10-16 8-26 14-20 12-11 7-18 12-17 12-18 14-11 9-10 9-11 9-17 16-24 24-7 8-12 14-22 28-12 16-15 24-13 22-16 32-15 36-13 37-6 23-6 30-5 32-3 30v45l4 43 7 41 6 26 15 46 17 39 12 24 11 19 10 16 11 16 14 19 11 14 12 14 9 10 14 15 28 28 11 9 15 13 12 9 17 13 17 12 13 10 15 10 6 8v24l-3 30-6 31-10 36-9 26-14 34-12 25-7 16v2l11-2 12-3 50-17 20-9 27-14 23-15 14-10 17-13 12-11 8-7 6-7 4-3v-2l3-1 7-8 9-9 7-9 4-5 7-5 10 2 24 6 43 8 50 7 33 3 19 1h48l45-3 36-4 34-5 35-7 39-10 44-14 38-15 27-12 21-10 22-12 16-9 24-15 28-19 19-14 12-10 10-8 10-9 8-7 13-12 25-25 4-5v-2h2l9-11 9-10 6-8 8-10 8-11 6-9 7-10 11-18 8-13 19-38 12-29 12-36 6-21 7-35 5-32 3-30v-50l-4-42-5-33-11-44-14-41-9-21-12-26-13-24-14-23-17-25-16-21-11-14-12-14-11-12-28-28-8-7-14-12-16-13-16-12-20-14-23-15-26-16-34-18-27-13-24-10-29-11-41-13-38-10-42-9-37-5-36-4-31-2-28-1z"/>
<path transform="translate(782,435)" d="m0 0h34l26 2 17 3 17 5 18 8 15 8 16 11 15 13 8 8 9 11 9 12 8 14 9 19 6 18 4 20 2 17v26l-4 26-4 12-11 21-9 13-14 17-10 11-1 2h-2v2l-7 6-1 2h-2l-2 4-4 4h-2v2l-8 7-19 19-3 4h-2l-2 4h-2l-2 4-15 16-11 14-6 8-10 15-7 12-4 10-3 17-1 15v22l-2 6-3 1h-75l-4-2v-7l3-16 6-43 6-25 6-16 10-17 8-12 12-15 9-11 14-15 14-16 37-37 11-12 11-17 8-16 5-14 3-12v-28l-3-18-6-18-8-15-9-11-3-3v-2l-4-2-6-5-13-8-18-6-20-3h-39l-21 3-15 5-15 8-11 8-10 9-10 15-7 15-8 26-4 21-3 24-3 4-4 1h-69l-5-3-1-2v-10l5-29 5-20 11-32 8-16 9-15 10-13 9-10 5-6 8-7 12-10 14-9 15-8 21-8 19-5 17-3z"/>
<path transform="translate(746 1e3)" d="m0 0 82 1 3 1 1 2-1 86-1 2-3 1-31 1h-48l-3-2-1-5v-85z"/>
</svg>
