<?xml version="1.0" ?><svg viewBox="0 0 64 64" xmlns="http://www.w3.org/2000/svg"><title/><g data-name="Layer 16" id="Layer_16"><circle cx="18" cy="42" r="3"/><rect height="6" width="18" x="9" y="55"/><polygon points="19.18 3 16.82 3 15.22 11 20.78 11 19.18 3"/><rect height="2" width="18" x="9" y="13"/><path d="M9,53H27V29H9Zm8.54-16,1.75-1.76,1.42,1.42-.72.71a5,5,0,1,1-2.45-.37Z"/><rect height="2" width="22" x="7" y="17"/><rect height="6" width="18" x="9" y="21"/><rect height="6" width="18" x="37" y="55"/><polygon points="47.18 3 44.82 3 43.22 11 48.78 11 47.18 3"/><path d="M47,40a1,1,0,0,0-2,0,8.81,8.81,0,0,0,1,4.1A8.81,8.81,0,0,0,47,40Z"/><rect height="2" width="18" x="37" y="13"/><path d="M37,53H55V29H37Zm8.54-16,1.75-1.76,1.42,1.42-.91.9A3,3,0,0,1,49,40a10.86,10.86,0,0,1-1.83,6l-.34.5a1,1,0,0,1-1.66,0l-.34-.5A10.86,10.86,0,0,1,43,40,3,3,0,0,1,45.54,37.05Z"/><rect height="6" width="18" x="37" y="21"/><rect height="2" width="22" x="35" y="17"/></g></svg>