<?xml version="1.0" standalone="no"?>
<!DOCTYPE svg PUBLIC "-//W3C//DTD SVG 20010904//EN"
 "http://www.w3.org/TR/2001/REC-SVG-20010904/DTD/svg10.dtd">
<svg version="1.0" xmlns="http://www.w3.org/2000/svg"
 viewBox="0 0 2600.000000 2600.000000"
 preserveAspectRatio="xMidYMid meet">
<metadata>
Created by potrace 1.15, written by Peter Selinger 2001-2017
</metadata>
<g transform="translate(0.000000,2600.000000) scale(0.100000,-0.100000)"
fill="#000000" stroke="none">
<path d="M13170 21593 c-469 -36 -897 -198 -1230 -463 -221 -177 -482 -490
-569 -685 -68 -151 -92 -252 -92 -386 0 -169 59 -301 184 -414 104 -94 211
-135 358 -135 228 0 394 114 596 410 186 272 306 396 472 483 169 89 353 124
605 114 325 -13 527 -75 666 -203 111 -103 152 -202 154 -369 1 -106 0 -113
-33 -179 -45 -92 -142 -193 -260 -270 -53 -35 -247 -141 -431 -236 -396 -205
-421 -219 -514 -313 -132 -133 -211 -280 -241 -452 -20 -118 -21 -550 -1 -647
41 -191 167 -320 366 -374 91 -24 275 -25 354 0 185 55 320 182 365 341 7 22
16 108 21 192 5 86 15 166 23 185 19 44 99 116 178 158 118 62 562 331 724
438 89 59 185 131 217 164 216 220 338 544 355 943 15 369 -77 677 -284 949
-119 155 -340 345 -540 462 -255 151 -587 251 -933 283 -106 10 -404 12 -510
4z"/>
<path d="M13310 17023 c-241 -17 -444 -114 -618 -297 -83 -88 -144 -202 -168
-317 -20 -93 -14 -298 11 -379 77 -250 317 -465 605 -541 123 -33 348 -33 470
0 271 73 500 263 589 489 34 85 54 225 47 317 -18 220 -107 384 -286 526 -182
144 -419 218 -650 202z"/>
<path d="M13035 14425 c-309 -38 -626 -137 -911 -284 -669 -346 -1163 -969
-1354 -1707 -59 -226 -81 -408 -81 -664 -1 -731 282 -1399 807 -1911 170 -165
302 -266 507 -389 50 -30 75 -51 66 -54 -8 -3 -72 -23 -144 -45 -500 -153
-986 -399 -1430 -725 -349 -256 -729 -633 -991 -981 -591 -785 -929 -1738
-961 -2708 l-6 -187 4819 2 4819 3 -3 135 c-18 874 -292 1751 -779 2494 -530
808 -1282 1435 -2173 1811 -136 57 -534 195 -564 195 -33 0 -14 18 72 69 466
277 852 713 1073 1212 279 631 302 1358 64 2005 -58 159 -187 410 -284 555
-443 660 -1132 1082 -1917 1174 -157 18 -476 18 -629 0z"/>
</g>
</svg>
